<svg xmlns="http://www.w3.org/2000/svg" viewBox="0 0 512 512"><rect width="512" height="512" rx="50" ry="50" fill="#b10000"/><path d="M187.688-177L174.375-152.063Q162-159.188 145.125-167.344Q128.250-175.500 111.750-175.500L111.750-175.500Q94.875-175.500 84.469-164.813Q74.063-154.125 69.281-138.281Q64.500-122.438 64.500-106.688L64.500-106.688Q64.500-82.125 73.219-62.063Q81.938-42 100.125-30.188Q118.313-18.375 146.250-18.375L146.250-18.375Q168.938-18.375 195.375-26.438L195.375-26.438L201.563-13.875Q186.188-3.563 166.406 1.125Q146.625 5.813 127.875 5.813L127.875 5.813Q107.438 5.813 88.313-0.656Q69.188-7.125 54.094-19.688Q39-32.250 30.094-50.531Q21.188-68.813 21.188-92.625L21.188-92.625Q21.188-125.438 36.188-148.969Q51.188-172.500 77.063-185.156Q102.938-197.813 135.563-197.813L135.563-197.813Q138.375-197.813 146.813-197.156Q155.250-196.500 164.906-194.719Q174.563-192.938 181.594-189.563Q188.625-186.188 188.625-180.938L188.625-180.938Q188.625-178.125 187.688-177L187.688-177ZM307.500 86.438L307.500 86.438Q302.438 89.250 294.563 90.938Q286.688 92.625 280.688 92.625L280.688 92.625Q271.125 92.625 264.938 88.313Q258.750 84 258.750 73.688L258.750 73.688L258.750-173.250L225.375-173.250L225.375-187.313Q230.625-189.750 241.219-191.438Q251.813-193.125 264.094-194.063Q276.375-195 286.125-195L286.125-195Q293.813-195 298.031-193.781Q302.250-192.563 302.250-185.063L302.250-185.063L302.250-176.250Q313.313-184.313 331.125-191.063Q348.938-197.813 369-197.813L369-197.813Q392.063-197.813 407.719-189.094Q423.375-180.375 432.750-165.844Q442.125-151.313 446.250-133.313Q450.375-115.313 450.375-96.750L450.375-96.750Q450.375-77.813 445.031-59.531Q439.688-41.250 428.906-26.531Q418.125-11.813 401.813-3Q385.500 5.813 363.563 5.813L363.563 5.813Q345.750 5.813 331.875 1.219Q318-3.375 310.125-7.969Q302.250-12.563 302.250-12.750L302.250-12.750L302.250 32.625Q302.250 55.688 304.313 68.438Q306.375 81.188 307.500 86.438ZM302.250-157.500L302.250-35.250Q312.938-29.250 325.781-23.063Q338.625-16.875 352.875-16.875L352.875-16.875Q370.313-16.875 381.563-27.844Q392.813-38.813 398.156-57.094Q403.500-75.375 403.500-97.125L403.500-97.125Q403.500-133.500 395.156-154.500Q386.813-175.500 362.813-175.500L362.813-175.500Q352.875-175.500 342.281-172.781Q331.688-170.063 322.594-166.500Q313.500-162.938 307.875-160.219Q302.250-157.500 302.250-157.500L302.250-157.500Z" fill="#f8f6bd" transform="translate(20.218494415283203, 308.593994140625)"/></svg>